<svg width="171" height="185" viewBox="0 0 171 185" fill="none" xmlns="http://www.w3.org/2000/svg">
<mask id="mask0_761_11092" style="mask-type:alpha" maskUnits="userSpaceOnUse" x="0" y="15" width="171" height="170">
<path d="M85.5 185C132.444 185 170.5 146.944 170.5 100C170.5 53.0558 132.444 15 85.5 15C38.5558 15 0.5 53.0558 0.5 100C0.5 146.944 38.5558 185 85.5 185Z" fill="#EDE9F0"/>
</mask>
<g mask="url(#mask0_761_11092)">
<path d="M85.5 185C132.444 185 170.5 146.944 170.5 100C170.5 53.0558 132.444 15 85.5 15C38.5558 15 0.5 53.0558 0.5 100C0.5 146.944 38.5558 185 85.5 185Z" fill="#EDE9F0"/>
<path d="M141.5 50H29.5C25.0817 50 21.5 53.5817 21.5 58V89C21.5 93.4183 25.0817 97 29.5 97H141.5C145.918 97 149.5 93.4183 149.5 89V58C149.5 53.5817 145.918 50 141.5 50Z" fill="white"/>
<path d="M125 65H64C62.6193 65 61.5 66.1193 61.5 67.5C61.5 68.8807 62.6193 70 64 70H125C126.381 70 127.5 68.8807 127.5 67.5C127.5 66.1193 126.381 65 125 65Z" fill="#B3ACB8"/>
<path opacity="0.5" d="M105 77H64C62.6193 77 61.5 78.1193 61.5 79.5C61.5 80.8807 62.6193 82 64 82H105C106.381 82 107.5 80.8807 107.5 79.5C107.5 78.1193 106.381 77 105 77Z" fill="#B3ACB8"/>
<path d="M43.5 84C49.0228 84 53.5 79.5228 53.5 74C53.5 68.4772 49.0228 64 43.5 64C37.9772 64 33.5 68.4772 33.5 74C33.5 79.5228 37.9772 84 43.5 84Z" fill="#B3ACB8"/>
<path d="M141.5 100H29.5C25.0817 100 21.5 103.582 21.5 108V139C21.5 143.418 25.0817 147 29.5 147H141.5C145.918 147 149.5 143.418 149.5 139V108C149.5 103.582 145.918 100 141.5 100Z" fill="white"/>
<path d="M125 115H64C62.6193 115 61.5 116.119 61.5 117.5C61.5 118.881 62.6193 120 64 120H125C126.381 120 127.5 118.881 127.5 117.5C127.5 116.119 126.381 115 125 115Z" fill="#B3ACB8"/>
<path opacity="0.5" d="M105 127H64C62.6193 127 61.5 128.119 61.5 129.5C61.5 130.881 62.6193 132 64 132H105C106.381 132 107.5 130.881 107.5 129.5C107.5 128.119 106.381 127 105 127Z" fill="#B3ACB8"/>
<path d="M43.5 134C49.0228 134 53.5 129.523 53.5 124C53.5 118.477 49.0228 114 43.5 114C37.9772 114 33.5 118.477 33.5 124C33.5 129.523 37.9772 134 43.5 134Z" fill="#B3ACB8"/>
<path d="M141.5 150H29.5C25.0817 150 21.5 153.582 21.5 158V189C21.5 193.418 25.0817 197 29.5 197H141.5C145.918 197 149.5 193.418 149.5 189V158C149.5 153.582 145.918 150 141.5 150Z" fill="white"/>
<path d="M125 165H64C62.6193 165 61.5 166.119 61.5 167.5C61.5 168.881 62.6193 170 64 170H125C126.381 170 127.5 168.881 127.5 167.5C127.5 166.119 126.381 165 125 165Z" fill="#B3ACB8"/>
<path opacity="0.5" d="M105 177H64C62.6193 177 61.5 178.119 61.5 179.5C61.5 180.881 62.6193 182 64 182H105C106.381 182 107.5 180.881 107.5 179.5C107.5 178.119 106.381 177 105 177Z" fill="#B3ACB8"/>
<path d="M43.5 184C49.0228 184 53.5 179.523 53.5 174C53.5 168.477 49.0228 164 43.5 164C37.9772 164 33.5 168.477 33.5 174C33.5 179.523 37.9772 184 43.5 184Z" fill="#B3ACB8"/>
<path d="M85.5 185C132.444 185 170.5 146.944 170.5 100C170.5 53.0558 132.444 15 85.5 15C38.5558 15 0.5 53.0558 0.5 100C0.5 146.944 38.5558 185 85.5 185Z" fill="url(#paint0_linear_761_11092)"/>
<path d="M141.5 0H29.5C25.0817 0 21.5 3.58172 21.5 8V39C21.5 43.4183 25.0817 47 29.5 47H141.5C145.918 47 149.5 43.4183 149.5 39V8C149.5 3.58172 145.918 0 141.5 0Z" fill="white"/>
<path d="M125 15H64C62.6193 15 61.5 16.1193 61.5 17.5C61.5 18.8807 62.6193 20 64 20H125C126.381 20 127.5 18.8807 127.5 17.5C127.5 16.1193 126.381 15 125 15Z" fill="#B3ACB8"/>
<path opacity="0.5" d="M105 27H64C62.6193 27 61.5 28.1193 61.5 29.5C61.5 30.8807 62.6193 32 64 32H105C106.381 32 107.5 30.8807 107.5 29.5C107.5 28.1193 106.381 27 105 27Z" fill="#B3ACB8"/>
<path d="M43.5 34C49.0228 34 53.5 29.5228 53.5 24C53.5 18.4772 49.0228 14 43.5 14C37.9772 14 33.5 18.4772 33.5 24C33.5 29.5228 37.9772 34 43.5 34Z" fill="#B3ACB8"/>
</g>
<defs>
<linearGradient id="paint0_linear_761_11092" x1="85.5" y1="185" x2="85.5" y2="100" gradientUnits="userSpaceOnUse">
<stop stop-color="#EDE9F0"/>
<stop offset="1" stop-color="#EDE9F0" stop-opacity="0"/>
</linearGradient>
</defs>
</svg>
