<svg width="22" height="21" viewBox="0 0 22 21" fill="none" xmlns="http://www.w3.org/2000/svg">
<path d="M9.16289 0L10.2911 1.70446C10.4075 1.90631 10.5017 2.10074 10.5523 2.30195L10.5589 2.32943H11.0134C11.06 2.12757 11.1437 1.93315 11.2646 1.73194L11.2813 1.70446L12.4014 0H13.3753L12.0442 1.99665C11.8657 2.27261 11.7845 2.47552 11.7845 2.68655C11.7845 2.88475 11.8542 3.09068 12.0314 3.3573L12.7549 4.4321L13.9489 3.99269L13.9709 3.98433L14.0137 3.96766C14.0207 3.96489 14.0276 3.96212 14.0345 3.95935L14.0748 3.94275C14.3124 3.84317 14.4666 3.74354 14.5693 3.60813L14.5777 3.59676C14.6837 3.45093 14.7286 3.26812 14.7506 3.01336L14.7541 2.96898L14.7572 2.92315L14.76 2.87641L14.8633 0.483454L15.6447 1.05117L15.5555 3.09324C15.5311 3.32499 15.493 3.53764 15.4157 3.73016L15.4049 3.75629L15.7726 4.02345C15.9289 3.88753 16.1109 3.77944 16.327 3.68768L16.3566 3.67527L18.2646 2.9547L19.0526 3.52719L16.8021 4.36011L16.7804 4.36856L16.7382 4.38545C16.4693 4.49533 16.3017 4.60706 16.1865 4.76559C16.07 4.92593 16.0053 5.1335 15.992 5.45335L15.9455 6.74817L17.1698 7.0945L17.2149 7.10659C17.2223 7.10853 17.2296 7.11043 17.2369 7.1123L17.28 7.12305C17.5486 7.18828 17.7407 7.19918 17.9112 7.14377C18.0961 7.0837 18.2489 6.94719 18.4338 6.72668L18.4658 6.68805L18.4821 6.66812L19.9722 4.79289L20.2707 5.71148L18.9982 7.31116C18.8423 7.48429 18.6865 7.63393 18.5107 7.74422L18.4866 7.75902L18.6271 8.19129C18.8335 8.17322 19.0442 8.19275 19.2729 8.2455L19.3042 8.2529L21.2714 8.79145L21.5724 9.71775L19.2621 9.0688L19.239 9.06274L19.194 9.05137C18.9127 8.98256 18.7117 8.97454 18.5257 9.03498C18.3372 9.09622 18.1629 9.22614 17.9641 9.47705L17.1654 10.4973L17.9524 11.4971C17.9625 11.5097 17.9725 11.5221 17.9824 11.5342L18.0118 11.5697L18.0408 11.6037C18.2079 11.7973 18.3497 11.9125 18.5095 11.9681L18.5232 11.9727C18.6848 12.0253 18.861 12.0161 19.0894 11.9663L19.1315 11.9569L19.1748 11.9465C19.1821 11.9447 19.1895 11.9429 19.1969 11.941L19.2421 11.9294L19.2646 11.9235L21.5724 11.2822L21.2739 12.2008L19.3042 12.7471C19.0763 12.7955 18.8623 12.825 18.6553 12.8109L18.6271 12.8087L18.4866 13.241C18.6642 13.3477 18.8233 13.4874 18.9773 13.6645L18.9982 13.6888L20.2732 15.2808L19.9722 16.2071L18.4846 14.3242C18.2773 14.0691 18.1094 13.9292 17.9087 13.864C17.7202 13.8027 17.5028 13.8053 17.1945 13.8915L15.9487 14.2475L15.9977 15.5188L16 15.5644C16.0009 15.5793 16.0018 15.594 16.0028 15.6084L16.006 15.6511L16.0097 15.6923C16.0331 15.9354 16.0823 16.1049 16.1799 16.2392C16.2823 16.3801 16.4352 16.4776 16.6579 16.5738L16.6992 16.5913C16.7062 16.5942 16.7132 16.5972 16.7204 16.6001L16.764 16.6177L16.8087 16.6351L19.0526 17.4728L18.2712 18.0405L16.3566 17.3247C16.1438 17.2299 15.9533 17.1279 15.7941 16.9949L15.7726 16.9766L15.4049 17.2437C15.4858 17.4344 15.5324 17.6409 15.5529 17.8747L15.5555 17.9068L15.6512 19.9441L14.8633 20.5165L14.7665 18.1188L14.7638 18.0727C14.7617 18.0425 14.7594 18.0133 14.7566 17.9851L14.7523 17.9434C14.7258 17.7114 14.6716 17.5462 14.5712 17.408C14.4547 17.2477 14.2772 17.122 13.9772 17.0105L12.76 16.5662L12.0524 17.6235L12.0392 17.6437L12.0138 17.6832C11.8575 17.9301 11.7804 18.1153 11.7765 18.299L11.7764 18.3134C11.7764 18.4975 11.8505 18.6755 11.988 18.9011L12.0129 18.9414L12.0391 18.9828L12.0524 19.0033L13.3753 21H12.4095L11.2813 19.2955C11.1648 19.0937 11.0707 18.8993 11.0201 18.6981L11.0134 18.6706H10.5589C10.5123 18.8724 10.4286 19.0669 10.3078 19.2681L10.2911 19.2955L9.17101 21H8.19703L9.52813 19.0033C9.7067 18.7274 9.78786 18.5245 9.78786 18.3134C9.78786 18.1153 9.71817 17.9093 9.54097 17.6427L8.81741 16.5678L7.62342 17.0073C7.59384 17.0185 7.56535 17.0296 7.53792 17.0407L7.49755 17.0573C7.25339 17.1596 7.09728 17.262 6.99465 17.4032C6.8887 17.5491 6.84372 17.7319 6.8218 17.9866L6.81826 18.031L6.81513 18.0769L6.8124 18.1236L6.70911 20.5165L5.92771 19.9488L6.01685 17.9068C6.04128 17.675 6.07937 17.4624 6.15671 17.2698L6.1675 17.2437L5.79979 16.9766C5.64346 17.1125 5.46145 17.2206 5.24542 17.3123L5.21575 17.3247L3.30773 18.0453L2.51977 17.4728L4.77026 16.6399C5.07692 16.5216 5.26186 16.4051 5.3859 16.2344C5.50239 16.0741 5.56706 15.8665 5.58042 15.5466L5.6268 14.2518L4.40256 13.9055L4.3575 13.8934C4.06164 13.8158 3.85541 13.7973 3.67466 13.852L3.66115 13.8562C3.48686 13.9129 3.34108 14.0375 3.16999 14.2363L3.13859 14.2733C3.12802 14.2859 3.11735 14.2988 3.10656 14.3119L3.09029 14.3319L1.60019 16.2071L1.30172 15.2885L2.57413 13.6888C2.73011 13.5157 2.88592 13.3661 3.06165 13.2558L3.08574 13.241L2.94528 12.8087C2.73891 12.8268 2.52813 12.8072 2.29943 12.7545L2.26813 12.7471L0.300975 12.2086L0 11.2822L2.31026 11.9312C2.3335 11.9374 2.35621 11.9432 2.37842 11.9486L2.42218 11.959C2.68082 12.0181 2.87043 12.0223 3.04666 11.965C3.23515 11.9038 3.40947 11.7739 3.60829 11.5229L4.40691 10.5026L3.62002 9.5029C3.6099 9.49027 3.59989 9.4779 3.58998 9.46579L3.56053 9.43027L3.53162 9.3963C3.35972 9.19713 3.21458 9.081 3.04916 9.02726C2.88753 8.97474 2.71138 8.98393 2.48301 9.03366L2.44091 9.04314L2.3976 9.05349C2.39028 9.05529 2.38291 9.05712 2.37548 9.05898L2.33028 9.07057L2.30775 9.07652L0 9.71775L0.298467 8.79917L2.26813 8.2529C2.49609 8.20452 2.71011 8.17504 2.9171 8.1891L2.94528 8.19129L3.08574 7.75902C2.90816 7.65234 2.74912 7.51264 2.5951 7.33554L2.57413 7.31116L1.29921 5.7192L1.60019 4.79289L3.08778 6.67584L3.11859 6.71325C3.31193 6.94474 3.47299 7.0741 3.66366 7.13605C3.85215 7.19729 4.06954 7.19465 4.37787 7.10852L5.62368 6.75249L5.57472 5.48116L5.57235 5.43562L5.56957 5.39155C5.56907 5.38433 5.56855 5.37717 5.56802 5.37007L5.56458 5.32816C5.56397 5.32129 5.56334 5.31448 5.56269 5.30772L5.55854 5.26787C5.53366 5.04585 5.48462 4.88767 5.39246 4.76082C5.29006 4.61988 5.13722 4.52243 4.91448 4.42617L4.87321 4.40867C4.8662 4.40575 4.85913 4.40283 4.85199 4.39991L4.80835 4.38234L4.76369 4.36488L2.51977 3.52719L3.30117 2.95947L5.21575 3.67527C5.42861 3.77013 5.61908 3.87207 5.77827 4.00511L5.79979 4.02345L6.1675 3.75629C6.08654 3.5656 6.03998 3.35911 6.01948 3.1253L6.01685 3.09324L5.92115 1.05594L6.70911 0.483454L6.80583 2.88118L6.80861 2.92729C6.82884 3.22948 6.88309 3.42939 7.00122 3.59199C7.11771 3.75233 7.29514 3.87797 7.59521 3.98952L8.81234 4.43374L9.52002 3.37645L9.53319 3.3563L9.55853 3.31679C9.71488 3.06989 9.79198 2.88468 9.79583 2.70105L9.79598 2.68655C9.79598 2.50246 9.72185 2.32454 9.58439 2.09891L9.55947 2.05859L9.53326 2.01721L9.52002 1.99665L8.19703 0H9.16289ZM11.0134 3.08426H10.5589C10.5123 3.28649 10.4283 3.48873 10.3 3.69097L10.283 3.71734L9.6123 4.72569L9.15038 5.43155L9.14433 5.4293L9.13854 5.43804L8.34319 5.13476L7.20656 4.71693C6.98071 4.63104 6.79104 4.51886 6.63178 4.3846L6.61118 4.36696L6.24347 4.63412C6.32458 4.82516 6.37554 5.03812 6.39057 5.27717L6.39233 5.3085L6.44244 6.51849L6.48363 7.36104L6.47742 7.36281L6.47787 7.37325L5.65615 7.59541L4.491 7.92545C4.2578 7.98872 4.03842 8.00945 3.83066 7.99443L3.80363 7.99227L3.66317 8.42455C3.84109 8.53143 4.00748 8.67375 4.16016 8.85832L4.17999 8.88264L4.93175 9.83206L5.46032 10.4895L5.4563 10.4946L5.46282 10.5028L4.92862 11.1655L4.17999 12.1174C4.02852 12.3056 3.86322 12.4513 3.68631 12.5613L3.66317 12.5754L3.80363 13.0077C4.01039 12.9896 4.22866 13.007 4.46066 13.0665L4.491 13.0745L5.65726 13.4007L6.4713 13.622L6.47104 13.6284L6.48112 13.6312L6.43849 14.4814L6.39233 15.6915C6.38043 15.9328 6.33236 16.1479 6.25387 16.3408L6.24347 16.3659L6.61118 16.633C6.76781 16.4969 6.95459 16.3826 7.1773 16.2944L7.20656 16.2831L8.34183 15.8615L9.13043 15.562L9.134 15.5673L9.14381 15.5637L9.60901 16.2765L10.283 17.2827C10.4152 17.4849 10.5027 17.6871 10.5526 17.8894L10.5589 17.9157H11.0134C11.0601 17.7135 11.1441 17.5113 11.2724 17.309L11.2894 17.2827L11.9601 16.2743L12.422 15.5684L12.4281 15.5706L12.4338 15.562L13.2292 15.8652L14.3658 16.2831C14.5917 16.369 14.7813 16.4811 14.9406 16.6154L14.9612 16.633L15.3289 16.3659C15.2478 16.1748 15.1968 15.9619 15.1818 15.7228L15.18 15.6915L15.1299 14.4815L15.0887 13.639L15.0949 13.6372L15.0945 13.6268L15.9162 13.4046L17.0814 13.0745C17.3146 13.0113 17.5339 12.9906 17.7417 13.0056L17.7687 13.0077L17.9092 12.5754C17.7313 12.4686 17.5649 12.3262 17.4122 12.1417L17.3924 12.1174L16.6406 11.1679L16.1121 10.5105L16.116 10.5054L16.1096 10.4972L16.6437 9.83445L17.3924 8.88264C17.5439 8.69438 17.7092 8.54867 17.8861 8.43869L17.9092 8.42455L17.7687 7.99227C17.562 8.01038 17.3437 7.99304 17.1117 7.93346L17.0814 7.92545L15.9151 7.5992L15.1011 7.37802L15.1013 7.37158L15.0913 7.36876L15.1339 6.51857L15.18 5.3085C15.1919 5.06717 15.24 4.85212 15.3185 4.65916L15.3289 4.63412L14.9612 4.36696C14.8046 4.50314 14.6178 4.61741 14.3951 4.70558L14.3658 4.71693L13.2305 5.13851L12.4419 5.43804L12.4384 5.43268L12.4286 5.43632L11.9633 4.72347L11.2894 3.71734C11.1572 3.51511 11.0697 3.31287 11.0197 3.11064L11.0134 3.08426Z" fill="white"/>
</svg>
