<svg width="60" height="63" viewBox="0 0 60 63" fill="none" xmlns="http://www.w3.org/2000/svg">
<mask id="path-1-outside-1_972_15845" maskUnits="userSpaceOnUse" x="-0.671878" y="-2.57897e-06" width="60" height="63" fill="black">
<rect fill="white" x="-0.671878" y="-2.57897e-06" width="60" height="63"/>
<path d="M58.3281 27.0665L53.6751 30.1529C53.124 30.4715 52.5933 30.7291 52.044 30.8675L51.969 30.8856L51.969 32.129C52.52 32.2565 53.0508 32.4855 53.6001 32.8161L53.6751 32.8618L58.3281 35.9259L58.3281 38.5904L52.8774 34.9489C52.1241 34.4604 51.5701 34.2384 50.994 34.2384C50.453 34.2384 49.8908 34.429 49.1629 34.9138L46.2288 36.8931L47.4284 40.1596L47.4512 40.2197L47.4967 40.3366C47.5043 40.3558 47.5118 40.3747 47.5194 40.3935L47.5647 40.5039C47.8365 41.1538 48.1085 41.5756 48.4782 41.8566L48.5092 41.8797C48.9073 42.1695 49.4064 42.2925 50.1019 42.3525L50.223 42.3622L50.3481 42.3708L50.4757 42.3783L57.0083 42.6608L55.4585 44.7984L49.8838 44.5546C49.2511 44.4878 48.6706 44.3836 48.1451 44.172L48.0737 44.1425L47.3444 45.1484C47.7155 45.5761 48.0105 46.074 48.261 46.665L48.2949 46.7461L50.262 51.9658L48.6991 54.1214L46.4253 47.9648L46.4023 47.9055L46.3561 47.7901C46.0562 47.0545 45.7512 46.5958 45.3184 46.2807C44.8807 45.962 44.314 45.7851 43.4409 45.7485L39.9061 45.6215L38.9606 48.9707L38.9276 49.094C38.9223 49.1142 38.9172 49.1343 38.9121 49.1543L38.8827 49.2721C38.7046 50.007 38.6749 50.5325 38.8261 50.999C38.9901 51.5047 39.3628 51.9226 39.9648 52.4285L40.0702 52.5161L40.1246 52.5607L45.2439 56.6371L42.7362 57.4536L38.3692 53.9727C37.8966 53.546 37.488 53.1197 37.1869 52.639L37.1466 52.5731L35.9665 52.9574C36.0158 53.5219 35.9625 54.0985 35.8185 54.7242L35.7983 54.8098L34.3281 60.1913L31.7993 61.0146L33.5709 54.6946L33.5875 54.6315L33.6185 54.5081C33.8064 53.7386 33.8283 53.1889 33.6633 52.68C33.4961 52.1644 33.1414 51.6875 32.4564 51.1436L29.6712 48.9588L26.9419 51.1115C26.9074 51.1392 26.8736 51.1666 26.8406 51.1937L26.7436 51.2743L26.6509 51.3533C26.1222 51.8105 25.8079 52.1985 25.656 52.6356L25.6434 52.6732C25.5 53.1153 25.5251 53.5972 25.6609 54.222L25.6867 54.3372L25.715 54.4556C25.7199 54.4756 25.7249 54.4958 25.73 54.5161L25.7616 54.6398L25.7779 54.7014L27.5284 61.0146L25.0207 60.1981L23.5295 54.8098C23.3974 54.1862 23.3169 53.6007 23.3553 53.0345L23.3613 52.9574L22.1812 52.5731C21.89 53.0589 21.5086 53.494 21.0251 53.9153L20.9586 53.9727L16.6126 57.4604L14.0839 56.6371L19.2242 52.5675C19.9206 52.0005 20.3025 51.5412 20.4805 50.9921C20.6477 50.4765 20.6405 49.8818 20.4054 49.0383L19.4336 45.6301L15.9628 45.7641L15.8385 45.7706C15.7977 45.773 15.7576 45.7755 15.7182 45.7782L15.6018 45.787L15.4893 45.797C14.8255 45.8611 14.363 45.9958 13.9963 46.2627C13.6116 46.5428 13.3455 46.961 13.0827 47.5703L13.035 47.6832C13.027 47.7024 13.019 47.7217 13.011 47.7413L12.9631 47.8606L12.9154 47.9828L10.6286 54.1214L9.07876 51.9838L11.0328 46.7461C11.2918 46.1638 11.5701 45.6428 11.9333 45.2073L11.9833 45.1484L11.254 44.1425C10.7335 44.3639 10.1697 44.4913 9.53145 44.5474L9.44395 44.5546L3.88227 44.8164L2.31941 42.6608L8.86503 42.3962L8.99089 42.3886C9.07339 42.3831 9.15309 42.3766 9.23018 42.3691L9.34388 42.3571C9.97729 42.2848 10.4282 42.1364 10.8055 41.8617C11.2432 41.543 11.5862 41.0576 11.8907 40.2367L13.1036 36.907L10.2171 34.9711L10.1621 34.9351L10.0542 34.8658C9.38018 34.438 8.87458 34.2271 8.37328 34.2166L8.33371 34.2162C7.83114 34.2162 7.34544 34.419 6.7295 34.795L6.61942 34.8632L6.50646 34.9349L6.45033 34.9711L0.999609 38.5904L0.999609 35.9481L5.65266 32.8618C6.20371 32.5432 6.73448 32.2855 7.28377 32.1472L7.35878 32.129L7.35878 30.8856C6.80774 30.7582 6.27697 30.5292 5.72769 30.1986L5.65266 30.1529L0.99961 27.0887L0.99961 24.4243L6.45033 28.0657C7.20368 28.5542 7.75762 28.7762 8.33371 28.7762C8.87476 28.7762 9.43695 28.5856 10.1648 28.1008L13.0991 26.1214L11.8994 22.8551C11.8689 22.7742 11.8386 22.6962 11.8084 22.6212L11.763 22.5107C11.4837 21.8428 11.2041 21.4157 10.8185 21.135C10.4204 20.8451 9.92136 20.7221 9.22588 20.6621L9.10472 20.6524L8.97959 20.6439L8.85201 20.6364L2.31941 20.3538L3.86924 18.2162L9.44395 18.46C10.0766 18.5269 10.6571 18.6311 11.1827 18.8427L11.254 18.8722L11.9833 17.8662C11.6123 17.4386 11.3172 16.9407 11.0667 16.3497L11.0328 16.2685L9.06573 11.0488L10.6286 8.89323L12.9024 15.0498C13.2254 15.8887 13.5433 16.3946 14.0093 16.734C14.4471 17.0527 15.0137 17.2296 15.8869 17.2661L19.4218 17.393L20.3671 14.0439L20.4001 13.9206C20.612 13.1112 20.6624 12.5471 20.5132 12.0526L20.5016 12.0156C20.347 11.5388 20.0068 11.1401 19.4639 10.672L19.363 10.5861C19.3286 10.5572 19.2934 10.528 19.2575 10.4985L19.2031 10.454L14.0839 6.37756L16.5915 5.56106L20.9586 9.04193C21.4312 9.46866 21.8397 9.8949 22.1408 10.3756L22.1812 10.4415L23.3613 10.0573C23.3119 9.49273 23.3652 8.91611 23.5093 8.29046L23.5295 8.20484L24.9996 2.82336L27.5284 2L25.7568 8.32009C25.7399 8.38367 25.724 8.44579 25.7092 8.50654L25.6809 8.62624C25.5196 9.33381 25.5081 9.85252 25.6645 10.3346C25.8317 10.8503 26.1863 11.3271 26.8713 11.871L29.6567 14.0558L32.3859 11.9031C32.4204 11.8755 32.4541 11.8481 32.4872 11.821L32.5842 11.7404L32.6769 11.6613C33.2206 11.191 33.5376 10.794 33.6844 10.3415C33.8277 9.89929 33.8026 9.41741 33.6669 8.79268L33.641 8.67749L33.6127 8.55902C33.6078 8.539 33.6028 8.51883 33.5977 8.49851L33.5661 8.37485L33.5499 8.31323L31.7993 2L34.307 2.8165L35.7983 8.20484C35.9304 8.82846 36.0109 9.41393 35.9725 9.98019L35.9665 10.0573L37.1466 10.4415C37.4378 9.95573 37.8191 9.52064 38.3026 9.0993L38.3692 9.04193L42.7151 5.55419L45.2439 6.37756L40.1036 10.4471L40.0014 10.5314C39.3695 11.0603 39.0163 11.5009 38.8472 12.0225C38.68 12.5382 38.6872 13.1329 38.9224 13.9764L39.8943 17.3845L43.3649 17.2505L43.4893 17.244L43.6096 17.2364C43.6293 17.2351 43.6488 17.2337 43.6682 17.2322L43.7826 17.2228C43.8014 17.2211 43.82 17.2194 43.8384 17.2176L43.9472 17.2063C44.5533 17.1382 44.9851 17.0041 45.3314 16.7519C45.7162 16.4718 45.9822 16.0537 46.245 15.4443L46.2928 15.3314C46.3007 15.3123 46.3087 15.2929 46.3167 15.2734L46.3646 15.154L46.4123 15.0318L48.6991 8.89323L50.249 11.0309L48.2949 16.2685C48.0359 16.8508 47.7577 17.3719 47.3945 17.8074L47.3444 17.8662L48.0737 18.8722C48.5943 18.6507 49.158 18.5233 49.7963 18.4672L49.8838 18.46L55.4455 18.1982L57.0083 20.3538L50.4627 20.6184L50.3368 20.626C49.5119 20.6814 48.9661 20.8298 48.5223 21.1529C48.0845 21.4716 47.7415 21.957 47.437 22.7779L46.2243 26.1076L49.1106 28.0435L49.1657 28.0795L49.2735 28.1489C49.9476 28.5766 50.4532 28.7875 50.9545 28.798L50.994 28.7984C51.4966 28.7984 51.9823 28.5957 52.5982 28.2196L52.7083 28.1515L52.8213 28.0797L52.8774 28.0435L58.3281 24.4243L58.3281 27.0665ZM49.9083 32.129L49.9083 30.8856C49.3562 30.7579 48.8041 30.5283 48.252 30.1772L48.18 30.1307L45.4273 28.296L43.5004 27.0323L43.5065 27.0158L43.4827 26.9999L44.3106 24.8241L45.4512 21.7147C45.6857 21.0968 45.9919 20.578 46.3585 20.1423L46.4066 20.0859L45.6773 19.08C45.1558 19.3019 44.5744 19.4413 43.9218 19.4824L43.8363 19.4872L40.5331 19.6243L38.233 19.737L38.2282 19.72L38.1997 19.7212L37.5932 17.4733L36.6922 14.2858C36.5195 13.6479 36.4629 13.0477 36.5039 12.4794L36.5098 12.4054L35.3297 12.0212C35.0379 12.5079 34.6494 12.9631 34.1455 13.3808L34.0792 13.435L31.4873 15.4916L29.6925 16.9376L29.6787 16.9266L29.6563 16.9444L27.8471 15.483L25.2486 13.435C24.7347 13.0206 24.3369 12.5685 24.0366 12.0845L23.998 12.0212L22.818 12.4054C22.8674 12.971 22.8201 13.5682 22.6574 14.2028L22.6355 14.2858L21.745 17.4763L21.1411 19.7033L21.1236 19.7026L21.1158 19.7301L18.795 19.6135L15.4915 19.4872C14.8326 19.4547 14.2456 19.3232 13.7188 19.1085L13.6504 19.08L12.9211 20.0859C13.2929 20.5144 13.6048 21.0254 13.8455 21.6346L13.8765 21.7147L15.0274 24.8204L15.8451 26.9777L15.8306 26.9875L15.8404 27.0143L13.8945 28.287L11.1477 30.1307C10.5956 30.4924 10.0435 30.7318 9.49143 30.8684L9.41942 30.8856L9.41942 32.129C9.97151 32.2567 10.5236 32.4863 11.0757 32.8375L11.1477 32.884L13.9006 34.7186L15.8274 35.9823L15.8214 35.9989L15.8451 36.0147L15.0173 38.1905L13.8765 41.3C13.642 41.9178 13.3358 42.4367 12.9692 42.8723L12.9211 42.9287L13.6504 43.9347C14.172 43.7128 14.7533 43.5733 15.4059 43.5322L15.4914 43.5274L18.7948 43.3903L21.0947 43.2776L21.0996 43.2946L21.1281 43.2934L21.7346 45.5412L22.6355 48.7288C22.8082 49.3668 22.8648 49.9669 22.8238 50.5353L22.8179 50.6092L23.998 50.9935C24.2898 50.5067 24.6783 50.0515 25.1822 49.6339L25.2486 49.5796L27.8406 47.5229L29.6352 46.0771L29.6491 46.0879L29.6714 46.0702L31.4808 47.5316L34.0792 49.5796C34.5931 49.994 34.9909 50.4462 35.2911 50.9302L35.3297 50.9935L36.5098 50.6092C36.4604 50.0436 36.5077 49.4465 36.6703 48.8118L36.6922 48.7288L37.5828 45.5382L38.1867 43.3114L38.2042 43.312L38.2119 43.2845L40.5329 43.4011L43.8363 43.5274C44.4951 43.56 45.0822 43.6915 45.6089 43.9062L45.6773 43.9347L46.4066 42.9287C46.0349 42.5002 45.7229 41.9893 45.4822 41.38L45.4512 41.3L44.3004 38.1941L43.4827 36.0369L43.4973 36.0271L43.4873 36.0003L45.4334 34.7275L48.18 32.884C48.7321 32.5222 49.2842 32.2828 49.8363 32.1463L49.9083 32.129Z"/>
</mask>
<path d="M58.3281 27.0665L53.6751 30.1529C53.124 30.4715 52.5933 30.7291 52.044 30.8675L51.969 30.8856L51.969 32.129C52.52 32.2565 53.0508 32.4855 53.6001 32.8161L53.6751 32.8618L58.3281 35.9259L58.3281 38.5904L52.8774 34.9489C52.1241 34.4604 51.5701 34.2384 50.994 34.2384C50.453 34.2384 49.8908 34.429 49.1629 34.9138L46.2288 36.8931L47.4284 40.1596L47.4512 40.2197L47.4967 40.3366C47.5043 40.3558 47.5118 40.3747 47.5194 40.3935L47.5647 40.5039C47.8365 41.1538 48.1085 41.5756 48.4782 41.8566L48.5092 41.8797C48.9073 42.1695 49.4064 42.2925 50.1019 42.3525L50.223 42.3622L50.3481 42.3708L50.4757 42.3783L57.0083 42.6608L55.4585 44.7984L49.8838 44.5546C49.2511 44.4878 48.6706 44.3836 48.1451 44.172L48.0737 44.1425L47.3444 45.1484C47.7155 45.5761 48.0105 46.074 48.261 46.665L48.2949 46.7461L50.262 51.9658L48.6991 54.1214L46.4253 47.9648L46.4023 47.9055L46.3561 47.7901C46.0562 47.0545 45.7512 46.5958 45.3184 46.2807C44.8807 45.962 44.314 45.7851 43.4409 45.7485L39.9061 45.6215L38.9606 48.9707L38.9276 49.094C38.9223 49.1142 38.9172 49.1343 38.9121 49.1543L38.8827 49.2721C38.7046 50.007 38.6749 50.5325 38.8261 50.999C38.9901 51.5047 39.3628 51.9226 39.9648 52.4285L40.0702 52.5161L40.1246 52.5607L45.2439 56.6371L42.7362 57.4536L38.3692 53.9727C37.8966 53.546 37.488 53.1197 37.1869 52.639L37.1466 52.5731L35.9665 52.9574C36.0158 53.5219 35.9625 54.0985 35.8185 54.7242L35.7983 54.8098L34.3281 60.1913L31.7993 61.0146L33.5709 54.6946L33.5875 54.6315L33.6185 54.5081C33.8064 53.7386 33.8283 53.1889 33.6633 52.68C33.4961 52.1644 33.1414 51.6875 32.4564 51.1436L29.6712 48.9588L26.9419 51.1115C26.9074 51.1392 26.8736 51.1666 26.8406 51.1937L26.7436 51.2743L26.6509 51.3533C26.1222 51.8105 25.8079 52.1985 25.656 52.6356L25.6434 52.6732C25.5 53.1153 25.5251 53.5972 25.6609 54.222L25.6867 54.3372L25.715 54.4556C25.7199 54.4756 25.7249 54.4958 25.73 54.5161L25.7616 54.6398L25.7779 54.7014L27.5284 61.0146L25.0207 60.1981L23.5295 54.8098C23.3974 54.1862 23.3169 53.6007 23.3553 53.0345L23.3613 52.9574L22.1812 52.5731C21.89 53.0589 21.5086 53.494 21.0251 53.9153L20.9586 53.9727L16.6126 57.4604L14.0839 56.6371L19.2242 52.5675C19.9206 52.0005 20.3025 51.5412 20.4805 50.9921C20.6477 50.4765 20.6405 49.8818 20.4054 49.0383L19.4336 45.6301L15.9628 45.7641L15.8385 45.7706C15.7977 45.773 15.7576 45.7755 15.7182 45.7782L15.6018 45.787L15.4893 45.797C14.8255 45.8611 14.363 45.9958 13.9963 46.2627C13.6116 46.5428 13.3455 46.961 13.0827 47.5703L13.035 47.6832C13.027 47.7024 13.019 47.7217 13.011 47.7413L12.9631 47.8606L12.9154 47.9828L10.6286 54.1214L9.07876 51.9838L11.0328 46.7461C11.2918 46.1638 11.5701 45.6428 11.9333 45.2073L11.9833 45.1484L11.254 44.1425C10.7335 44.3639 10.1697 44.4913 9.53145 44.5474L9.44395 44.5546L3.88227 44.8164L2.31941 42.6608L8.86503 42.3962L8.99089 42.3886C9.07339 42.3831 9.15309 42.3766 9.23018 42.3691L9.34388 42.3571C9.97729 42.2848 10.4282 42.1364 10.8055 41.8617C11.2432 41.543 11.5862 41.0576 11.8907 40.2367L13.1036 36.907L10.2171 34.9711L10.1621 34.9351L10.0542 34.8658C9.38018 34.438 8.87458 34.2271 8.37328 34.2166L8.33371 34.2162C7.83114 34.2162 7.34544 34.419 6.7295 34.795L6.61942 34.8632L6.50646 34.9349L6.45033 34.9711L0.999609 38.5904L0.999609 35.9481L5.65266 32.8618C6.20371 32.5432 6.73448 32.2855 7.28377 32.1472L7.35878 32.129L7.35878 30.8856C6.80774 30.7582 6.27697 30.5292 5.72769 30.1986L5.65266 30.1529L0.99961 27.0887L0.99961 24.4243L6.45033 28.0657C7.20368 28.5542 7.75762 28.7762 8.33371 28.7762C8.87476 28.7762 9.43695 28.5856 10.1648 28.1008L13.0991 26.1214L11.8994 22.8551C11.8689 22.7742 11.8386 22.6962 11.8084 22.6212L11.763 22.5107C11.4837 21.8428 11.2041 21.4157 10.8185 21.135C10.4204 20.8451 9.92136 20.7221 9.22588 20.6621L9.10472 20.6524L8.97959 20.6439L8.85201 20.6364L2.31941 20.3538L3.86924 18.2162L9.44395 18.46C10.0766 18.5269 10.6571 18.6311 11.1827 18.8427L11.254 18.8722L11.9833 17.8662C11.6123 17.4386 11.3172 16.9407 11.0667 16.3497L11.0328 16.2685L9.06573 11.0488L10.6286 8.89323L12.9024 15.0498C13.2254 15.8887 13.5433 16.3946 14.0093 16.734C14.4471 17.0527 15.0137 17.2296 15.8869 17.2661L19.4218 17.393L20.3671 14.0439L20.4001 13.9206C20.612 13.1112 20.6624 12.5471 20.5132 12.0526L20.5016 12.0156C20.347 11.5388 20.0068 11.1401 19.4639 10.672L19.363 10.5861C19.3286 10.5572 19.2934 10.528 19.2575 10.4985L19.2031 10.454L14.0839 6.37756L16.5915 5.56106L20.9586 9.04193C21.4312 9.46866 21.8397 9.8949 22.1408 10.3756L22.1812 10.4415L23.3613 10.0573C23.3119 9.49273 23.3652 8.91611 23.5093 8.29046L23.5295 8.20484L24.9996 2.82336L27.5284 2L25.7568 8.32009C25.7399 8.38367 25.724 8.44579 25.7092 8.50654L25.6809 8.62624C25.5196 9.33381 25.5081 9.85252 25.6645 10.3346C25.8317 10.8503 26.1863 11.3271 26.8713 11.871L29.6567 14.0558L32.3859 11.9031C32.4204 11.8755 32.4541 11.8481 32.4872 11.821L32.5842 11.7404L32.6769 11.6613C33.2206 11.191 33.5376 10.794 33.6844 10.3415C33.8277 9.89929 33.8026 9.41741 33.6669 8.79268L33.641 8.67749L33.6127 8.55902C33.6078 8.539 33.6028 8.51883 33.5977 8.49851L33.5661 8.37485L33.5499 8.31323L31.7993 2L34.307 2.8165L35.7983 8.20484C35.9304 8.82846 36.0109 9.41393 35.9725 9.98019L35.9665 10.0573L37.1466 10.4415C37.4378 9.95573 37.8191 9.52064 38.3026 9.0993L38.3692 9.04193L42.7151 5.55419L45.2439 6.37756L40.1036 10.4471L40.0014 10.5314C39.3695 11.0603 39.0163 11.5009 38.8472 12.0225C38.68 12.5382 38.6872 13.1329 38.9224 13.9764L39.8943 17.3845L43.3649 17.2505L43.4893 17.244L43.6096 17.2364C43.6293 17.2351 43.6488 17.2337 43.6682 17.2322L43.7826 17.2228C43.8014 17.2211 43.82 17.2194 43.8384 17.2176L43.9472 17.2063C44.5533 17.1382 44.9851 17.0041 45.3314 16.7519C45.7162 16.4718 45.9822 16.0537 46.245 15.4443L46.2928 15.3314C46.3007 15.3123 46.3087 15.2929 46.3167 15.2734L46.3646 15.154L46.4123 15.0318L48.6991 8.89323L50.249 11.0309L48.2949 16.2685C48.0359 16.8508 47.7577 17.3719 47.3945 17.8074L47.3444 17.8662L48.0737 18.8722C48.5943 18.6507 49.158 18.5233 49.7963 18.4672L49.8838 18.46L55.4455 18.1982L57.0083 20.3538L50.4627 20.6184L50.3368 20.626C49.5119 20.6814 48.9661 20.8298 48.5223 21.1529C48.0845 21.4716 47.7415 21.957 47.437 22.7779L46.2243 26.1076L49.1106 28.0435L49.1657 28.0795L49.2735 28.1489C49.9476 28.5766 50.4532 28.7875 50.9545 28.798L50.994 28.7984C51.4966 28.7984 51.9823 28.5957 52.5982 28.2196L52.7083 28.1515L52.8213 28.0797L52.8774 28.0435L58.3281 24.4243L58.3281 27.0665ZM49.9083 32.129L49.9083 30.8856C49.3562 30.7579 48.8041 30.5283 48.252 30.1772L48.18 30.1307L45.4273 28.296L43.5004 27.0323L43.5065 27.0158L43.4827 26.9999L44.3106 24.8241L45.4512 21.7147C45.6857 21.0968 45.9919 20.578 46.3585 20.1423L46.4066 20.0859L45.6773 19.08C45.1558 19.3019 44.5744 19.4413 43.9218 19.4824L43.8363 19.4872L40.5331 19.6243L38.233 19.737L38.2282 19.72L38.1997 19.7212L37.5932 17.4733L36.6922 14.2858C36.5195 13.6479 36.4629 13.0477 36.5039 12.4794L36.5098 12.4054L35.3297 12.0212C35.0379 12.5079 34.6494 12.9631 34.1455 13.3808L34.0792 13.435L31.4873 15.4916L29.6925 16.9376L29.6787 16.9266L29.6563 16.9444L27.8471 15.483L25.2486 13.435C24.7347 13.0206 24.3369 12.5685 24.0366 12.0845L23.998 12.0212L22.818 12.4054C22.8674 12.971 22.8201 13.5682 22.6574 14.2028L22.6355 14.2858L21.745 17.4763L21.1411 19.7033L21.1236 19.7026L21.1158 19.7301L18.795 19.6135L15.4915 19.4872C14.8326 19.4547 14.2456 19.3232 13.7188 19.1085L13.6504 19.08L12.9211 20.0859C13.2929 20.5144 13.6048 21.0254 13.8455 21.6346L13.8765 21.7147L15.0274 24.8204L15.8451 26.9777L15.8306 26.9875L15.8404 27.0143L13.8945 28.287L11.1477 30.1307C10.5956 30.4924 10.0435 30.7318 9.49143 30.8684L9.41942 30.8856L9.41942 32.129C9.97151 32.2567 10.5236 32.4863 11.0757 32.8375L11.1477 32.884L13.9006 34.7186L15.8274 35.9823L15.8214 35.9989L15.8451 36.0147L15.0173 38.1905L13.8765 41.3C13.642 41.9178 13.3358 42.4367 12.9692 42.8723L12.9211 42.9287L13.6504 43.9347C14.172 43.7128 14.7533 43.5733 15.4059 43.5322L15.4914 43.5274L18.7948 43.3903L21.0947 43.2776L21.0996 43.2946L21.1281 43.2934L21.7346 45.5412L22.6355 48.7288C22.8082 49.3668 22.8648 49.9669 22.8238 50.5353L22.8179 50.6092L23.998 50.9935C24.2898 50.5067 24.6783 50.0515 25.1822 49.6339L25.2486 49.5796L27.8406 47.5229L29.6352 46.0771L29.6491 46.0879L29.6714 46.0702L31.4808 47.5316L34.0792 49.5796C34.5931 49.994 34.9909 50.4462 35.2911 50.9302L35.3297 50.9935L36.5098 50.6092C36.4604 50.0436 36.5077 49.4465 36.6703 48.8118L36.6922 48.7288L37.5828 45.5382L38.1867 43.3114L38.2042 43.312L38.2119 43.2845L40.5329 43.4011L43.8363 43.5274C44.4951 43.56 45.0822 43.6915 45.6089 43.9062L45.6773 43.9347L46.4066 42.9287C46.0349 42.5002 45.7229 41.9893 45.4822 41.38L45.4512 41.3L44.3004 38.1941L43.4827 36.0369L43.4973 36.0271L43.4873 36.0003L45.4334 34.7275L48.18 32.884C48.7321 32.5222 49.2842 32.2828 49.8363 32.1463L49.9083 32.129Z" fill="#1C1C1C"/>
<path d="M58.3281 27.0665L53.6751 30.1529C53.124 30.4715 52.5933 30.7291 52.044 30.8675L51.969 30.8856L51.969 32.129C52.52 32.2565 53.0508 32.4855 53.6001 32.8161L53.6751 32.8618L58.3281 35.9259L58.3281 38.5904L52.8774 34.9489C52.1241 34.4604 51.5701 34.2384 50.994 34.2384C50.453 34.2384 49.8908 34.429 49.1629 34.9138L46.2288 36.8931L47.4284 40.1596L47.4512 40.2197L47.4967 40.3366C47.5043 40.3558 47.5118 40.3747 47.5194 40.3935L47.5647 40.5039C47.8365 41.1538 48.1085 41.5756 48.4782 41.8566L48.5092 41.8797C48.9073 42.1695 49.4064 42.2925 50.1019 42.3525L50.223 42.3622L50.3481 42.3708L50.4757 42.3783L57.0083 42.6608L55.4585 44.7984L49.8838 44.5546C49.2511 44.4878 48.6706 44.3836 48.1451 44.172L48.0737 44.1425L47.3444 45.1484C47.7155 45.5761 48.0105 46.074 48.261 46.665L48.2949 46.7461L50.262 51.9658L48.6991 54.1214L46.4253 47.9648L46.4023 47.9055L46.3561 47.7901C46.0562 47.0545 45.7512 46.5958 45.3184 46.2807C44.8807 45.962 44.314 45.7851 43.4409 45.7485L39.9061 45.6215L38.9606 48.9707L38.9276 49.094C38.9223 49.1142 38.9172 49.1343 38.9121 49.1543L38.8827 49.2721C38.7046 50.007 38.6749 50.5325 38.8261 50.999C38.9901 51.5047 39.3628 51.9226 39.9648 52.4285L40.0702 52.5161L40.1246 52.5607L45.2439 56.6371L42.7362 57.4536L38.3692 53.9727C37.8966 53.546 37.488 53.1197 37.1869 52.639L37.1466 52.5731L35.9665 52.9574C36.0158 53.5219 35.9625 54.0985 35.8185 54.7242L35.7983 54.8098L34.3281 60.1913L31.7993 61.0146L33.5709 54.6946L33.5875 54.6315L33.6185 54.5081C33.8064 53.7386 33.8283 53.1889 33.6633 52.68C33.4961 52.1644 33.1414 51.6875 32.4564 51.1436L29.6712 48.9588L26.9419 51.1115C26.9074 51.1392 26.8736 51.1666 26.8406 51.1937L26.7436 51.2743L26.6509 51.3533C26.1222 51.8105 25.8079 52.1985 25.656 52.6356L25.6434 52.6732C25.5 53.1153 25.5251 53.5972 25.6609 54.222L25.6867 54.3372L25.715 54.4556C25.7199 54.4756 25.7249 54.4958 25.73 54.5161L25.7616 54.6398L25.7779 54.7014L27.5284 61.0146L25.0207 60.1981L23.5295 54.8098C23.3974 54.1862 23.3169 53.6007 23.3553 53.0345L23.3613 52.9574L22.1812 52.5731C21.89 53.0589 21.5086 53.494 21.0251 53.9153L20.9586 53.9727L16.6126 57.4604L14.0839 56.6371L19.2242 52.5675C19.9206 52.0005 20.3025 51.5412 20.4805 50.9921C20.6477 50.4765 20.6405 49.8818 20.4054 49.0383L19.4336 45.6301L15.9628 45.7641L15.8385 45.7706C15.7977 45.773 15.7576 45.7755 15.7182 45.7782L15.6018 45.787L15.4893 45.797C14.8255 45.8611 14.363 45.9958 13.9963 46.2627C13.6116 46.5428 13.3455 46.961 13.0827 47.5703L13.035 47.6832C13.027 47.7024 13.019 47.7217 13.011 47.7413L12.9631 47.8606L12.9154 47.9828L10.6286 54.1214L9.07876 51.9838L11.0328 46.7461C11.2918 46.1638 11.5701 45.6428 11.9333 45.2073L11.9833 45.1484L11.254 44.1425C10.7335 44.3639 10.1697 44.4913 9.53145 44.5474L9.44395 44.5546L3.88227 44.8164L2.31941 42.6608L8.86503 42.3962L8.99089 42.3886C9.07339 42.3831 9.15309 42.3766 9.23018 42.3691L9.34388 42.3571C9.97729 42.2848 10.4282 42.1364 10.8055 41.8617C11.2432 41.543 11.5862 41.0576 11.8907 40.2367L13.1036 36.907L10.2171 34.9711L10.1621 34.9351L10.0542 34.8658C9.38018 34.438 8.87458 34.2271 8.37328 34.2166L8.33371 34.2162C7.83114 34.2162 7.34544 34.419 6.7295 34.795L6.61942 34.8632L6.50646 34.9349L6.45033 34.9711L0.999609 38.5904L0.999609 35.9481L5.65266 32.8618C6.20371 32.5432 6.73448 32.2855 7.28377 32.1472L7.35878 32.129L7.35878 30.8856C6.80774 30.7582 6.27697 30.5292 5.72769 30.1986L5.65266 30.1529L0.99961 27.0887L0.99961 24.4243L6.45033 28.0657C7.20368 28.5542 7.75762 28.7762 8.33371 28.7762C8.87476 28.7762 9.43695 28.5856 10.1648 28.1008L13.0991 26.1214L11.8994 22.8551C11.8689 22.7742 11.8386 22.6962 11.8084 22.6212L11.763 22.5107C11.4837 21.8428 11.2041 21.4157 10.8185 21.135C10.4204 20.8451 9.92136 20.7221 9.22588 20.6621L9.10472 20.6524L8.97959 20.6439L8.85201 20.6364L2.31941 20.3538L3.86924 18.2162L9.44395 18.46C10.0766 18.5269 10.6571 18.6311 11.1827 18.8427L11.254 18.8722L11.9833 17.8662C11.6123 17.4386 11.3172 16.9407 11.0667 16.3497L11.0328 16.2685L9.06573 11.0488L10.6286 8.89323L12.9024 15.0498C13.2254 15.8887 13.5433 16.3946 14.0093 16.734C14.4471 17.0527 15.0137 17.2296 15.8869 17.2661L19.4218 17.393L20.3671 14.0439L20.4001 13.9206C20.612 13.1112 20.6624 12.5471 20.5132 12.0526L20.5016 12.0156C20.347 11.5388 20.0068 11.1401 19.4639 10.672L19.363 10.5861C19.3286 10.5572 19.2934 10.528 19.2575 10.4985L19.2031 10.454L14.0839 6.37756L16.5915 5.56106L20.9586 9.04193C21.4312 9.46866 21.8397 9.8949 22.1408 10.3756L22.1812 10.4415L23.3613 10.0573C23.3119 9.49273 23.3652 8.91611 23.5093 8.29046L23.5295 8.20484L24.9996 2.82336L27.5284 2L25.7568 8.32009C25.7399 8.38367 25.724 8.44579 25.7092 8.50654L25.6809 8.62624C25.5196 9.33381 25.5081 9.85252 25.6645 10.3346C25.8317 10.8503 26.1863 11.3271 26.8713 11.871L29.6567 14.0558L32.3859 11.9031C32.4204 11.8755 32.4541 11.8481 32.4872 11.821L32.5842 11.7404L32.6769 11.6613C33.2206 11.191 33.5376 10.794 33.6844 10.3415C33.8277 9.89929 33.8026 9.41741 33.6669 8.79268L33.641 8.67749L33.6127 8.55902C33.6078 8.539 33.6028 8.51883 33.5977 8.49851L33.5661 8.37485L33.5499 8.31323L31.7993 2L34.307 2.8165L35.7983 8.20484C35.9304 8.82846 36.0109 9.41393 35.9725 9.98019L35.9665 10.0573L37.1466 10.4415C37.4378 9.95573 37.8191 9.52064 38.3026 9.0993L38.3692 9.04193L42.7151 5.55419L45.2439 6.37756L40.1036 10.4471L40.0014 10.5314C39.3695 11.0603 39.0163 11.5009 38.8472 12.0225C38.68 12.5382 38.6872 13.1329 38.9224 13.9764L39.8943 17.3845L43.3649 17.2505L43.4893 17.244L43.6096 17.2364C43.6293 17.2351 43.6488 17.2337 43.6682 17.2322L43.7826 17.2228C43.8014 17.2211 43.82 17.2194 43.8384 17.2176L43.9472 17.2063C44.5533 17.1382 44.9851 17.0041 45.3314 16.7519C45.7162 16.4718 45.9822 16.0537 46.245 15.4443L46.2928 15.3314C46.3007 15.3123 46.3087 15.2929 46.3167 15.2734L46.3646 15.154L46.4123 15.0318L48.6991 8.89323L50.249 11.0309L48.2949 16.2685C48.0359 16.8508 47.7577 17.3719 47.3945 17.8074L47.3444 17.8662L48.0737 18.8722C48.5943 18.6507 49.158 18.5233 49.7963 18.4672L49.8838 18.46L55.4455 18.1982L57.0083 20.3538L50.4627 20.6184L50.3368 20.626C49.5119 20.6814 48.9661 20.8298 48.5223 21.1529C48.0845 21.4716 47.7415 21.957 47.437 22.7779L46.2243 26.1076L49.1106 28.0435L49.1657 28.0795L49.2735 28.1489C49.9476 28.5766 50.4532 28.7875 50.9545 28.798L50.994 28.7984C51.4966 28.7984 51.9823 28.5957 52.5982 28.2196L52.7083 28.1515L52.8213 28.0797L52.8774 28.0435L58.3281 24.4243L58.3281 27.0665ZM49.9083 32.129L49.9083 30.8856C49.3562 30.7579 48.8041 30.5283 48.252 30.1772L48.18 30.1307L45.4273 28.296L43.5004 27.0323L43.5065 27.0158L43.4827 26.9999L44.3106 24.8241L45.4512 21.7147C45.6857 21.0968 45.9919 20.578 46.3585 20.1423L46.4066 20.0859L45.6773 19.08C45.1558 19.3019 44.5744 19.4413 43.9218 19.4824L43.8363 19.4872L40.5331 19.6243L38.233 19.737L38.2282 19.72L38.1997 19.7212L37.5932 17.4733L36.6922 14.2858C36.5195 13.6479 36.4629 13.0477 36.5039 12.4794L36.5098 12.4054L35.3297 12.0212C35.0379 12.5079 34.6494 12.9631 34.1455 13.3808L34.0792 13.435L31.4873 15.4916L29.6925 16.9376L29.6787 16.9266L29.6563 16.9444L27.8471 15.483L25.2486 13.435C24.7347 13.0206 24.3369 12.5685 24.0366 12.0845L23.998 12.0212L22.818 12.4054C22.8674 12.971 22.8201 13.5682 22.6574 14.2028L22.6355 14.2858L21.745 17.4763L21.1411 19.7033L21.1236 19.7026L21.1158 19.7301L18.795 19.6135L15.4915 19.4872C14.8326 19.4547 14.2456 19.3232 13.7188 19.1085L13.6504 19.08L12.9211 20.0859C13.2929 20.5144 13.6048 21.0254 13.8455 21.6346L13.8765 21.7147L15.0274 24.8204L15.8451 26.9777L15.8306 26.9875L15.8404 27.0143L13.8945 28.287L11.1477 30.1307C10.5956 30.4924 10.0435 30.7318 9.49143 30.8684L9.41942 30.8856L9.41942 32.129C9.97151 32.2567 10.5236 32.4863 11.0757 32.8375L11.1477 32.884L13.9006 34.7186L15.8274 35.9823L15.8214 35.9989L15.8451 36.0147L15.0173 38.1905L13.8765 41.3C13.642 41.9178 13.3358 42.4367 12.9692 42.8723L12.9211 42.9287L13.6504 43.9347C14.172 43.7128 14.7533 43.5733 15.4059 43.5322L15.4914 43.5274L18.7948 43.3903L21.0947 43.2776L21.0996 43.2946L21.1281 43.2934L21.7346 45.5412L22.6355 48.7288C22.8082 49.3668 22.8648 49.9669 22.8238 50.5353L22.8179 50.6092L23.998 50.9935C24.2898 50.5067 24.6783 50.0515 25.1822 49.6339L25.2486 49.5796L27.8406 47.5229L29.6352 46.0771L29.6491 46.0879L29.6714 46.0702L31.4808 47.5316L34.0792 49.5796C34.5931 49.994 34.9909 50.4462 35.2911 50.9302L35.3297 50.9935L36.5098 50.6092C36.4604 50.0436 36.5077 49.4465 36.6703 48.8118L36.6922 48.7288L37.5828 45.5382L38.1867 43.3114L38.2042 43.312L38.2119 43.2845L40.5329 43.4011L43.8363 43.5274C44.4951 43.56 45.0822 43.6915 45.6089 43.9062L45.6773 43.9347L46.4066 42.9287C46.0349 42.5002 45.7229 41.9893 45.4822 41.38L45.4512 41.3L44.3004 38.1941L43.4827 36.0369L43.4973 36.0271L43.4873 36.0003L45.4334 34.7275L48.18 32.884C48.7321 32.5222 49.2842 32.2828 49.8363 32.1463L49.9083 32.129Z" stroke="black" stroke-width="2" mask="url(#path-1-outside-1_972_15845)"/>
</svg>
