<svg width="33" height="33" viewBox="0 0 33 33" fill="none" xmlns="http://www.w3.org/2000/svg">
<path d="M16.4385 28.2964C23.0659 28.2964 28.4385 22.9238 28.4385 16.2964C28.4385 9.66897 23.0659 4.29639 16.4385 4.29639C9.81106 4.29639 4.43848 9.66897 4.43848 16.2964C4.43848 22.9238 9.81106 28.2964 16.4385 28.2964Z" stroke="#8A8A8A" stroke-width="2" stroke-linecap="round" stroke-linejoin="round"/>
<path d="M16.4385 20.2964C19.1999 20.2964 21.4385 18.0578 21.4385 15.2964C21.4385 12.535 19.1999 10.2964 16.4385 10.2964C13.6771 10.2964 11.4385 12.535 11.4385 15.2964C11.4385 18.0578 13.6771 20.2964 16.4385 20.2964Z" stroke="#8A8A8A" stroke-width="2" stroke-linecap="round" stroke-linejoin="round"/>
<path d="M8.41309 25.2212C9.16547 23.7392 10.3135 22.4945 11.73 21.6251C13.1465 20.7556 14.7761 20.2954 16.4381 20.2954C18.1001 20.2954 19.7297 20.7556 21.1462 21.6251C22.5626 22.4945 23.7107 23.7392 24.4631 25.2212" stroke="#8A8A8A" stroke-width="2" stroke-linecap="round" stroke-linejoin="round"/>
</svg>
