<svg width="28" height="23" viewBox="0 0 28 23" fill="none" xmlns="http://www.w3.org/2000/svg">
<path d="M27.7167 4.49849L23.9417 8.05573C23.1917 16.3166 15.8167 22.7338 7.00423 22.7338C5.19173 22.7338 3.69174 22.4619 2.55424 21.9301C1.64174 21.4929 1.26674 21.032 1.16674 20.8901C1.084 20.7713 1.03069 20.6364 1.01077 20.4954C0.99085 20.3544 1.00484 20.211 1.0517 20.0758C1.09856 19.9406 1.17707 19.8172 1.2814 19.7147C1.38572 19.6122 1.51317 19.5333 1.65424 19.4838C1.67924 19.472 4.62923 18.4084 6.54173 16.3638C5.35566 15.5654 4.31317 14.5917 3.45424 13.4802C1.74174 11.2821 -0.0707598 7.46482 1.01674 1.76852C1.05093 1.59917 1.13285 1.4417 1.25386 1.31273C1.37487 1.18376 1.53047 1.08808 1.70424 1.0358C1.87855 0.981833 2.06521 0.974236 2.24379 1.01384C2.42237 1.05344 2.58598 1.13872 2.71674 1.26034C2.75424 1.30761 6.91673 5.18394 12.0042 6.43665V5.71575C12.0091 4.96615 12.1702 4.22479 12.4781 3.53403C12.7861 2.84326 13.2349 2.21661 13.799 1.68985C14.3632 1.16309 15.0315 0.746541 15.7659 0.463987C16.5003 0.181434 17.2864 0.0384092 18.0792 0.0430795C19.1198 0.0571114 20.1388 0.325746 21.037 0.822812C21.9351 1.31988 22.6818 2.02842 23.2042 2.87942H27.0042C27.2016 2.87883 27.3948 2.93351 27.5594 3.03656C27.724 3.13962 27.8527 3.28643 27.9292 3.4585C28.0012 3.63313 28.0195 3.82348 27.9819 4.00753C27.9443 4.19157 27.8524 4.36179 27.7167 4.49849Z" fill="#BB99DE"/>
</svg>
