<svg width="26" height="27" viewBox="0 0 26 27" fill="none" xmlns="http://www.w3.org/2000/svg">
<path fill-rule="evenodd" clip-rule="evenodd" d="M13.1626 26.3151C13.2075 26.3157 13.2524 26.3161 13.2973 26.3163V26.3126C15.868 26.2507 18.3655 25.4291 20.473 23.948C22.6626 22.4093 24.3251 20.2334 25.2343 17.7163L25.2718 17.5913C26.2388 14.8234 26.2388 11.8093 25.2718 9.04134L25.2343 8.91634C24.3251 6.3993 22.6626 4.22342 20.473 2.68466C18.3655 1.20357 15.868 0.381943 13.2973 0.320101V0.316406C13.2524 0.316557 13.2075 0.316941 13.1626 0.317556C13.1177 0.316941 13.0727 0.316557 13.0278 0.316406V0.320101C10.4571 0.381943 7.95965 1.20357 5.8521 2.68466C3.66251 4.22342 2.00005 6.3993 1.09086 8.91634L1.05335 9.04134C0.0863817 11.8093 0.0863817 14.8234 1.05335 17.5913L1.09086 17.7163C2.00005 20.2334 3.66251 22.4093 5.8521 23.948C7.95965 25.4291 10.4571 26.2507 13.0278 26.3126V26.3163C13.0727 26.3161 13.1177 26.3157 13.1626 26.3151ZM13.1626 23.4428C14.5359 21.9792 15.5683 20.2285 16.1843 18.3163H10.1409C10.7569 20.2285 11.7893 21.9792 13.1626 23.4428ZM16.7093 16.3163C17.0925 14.3347 17.0925 12.298 16.7093 10.3163H9.61586C9.23262 12.298 9.23262 14.3347 9.61586 16.3163H16.7093ZM16.1843 8.31634C15.5683 6.40414 14.5359 4.65348 13.1626 3.18992C11.7893 4.65348 10.7569 6.40414 10.1409 8.31634H16.1843ZM7.57835 10.3163H2.74085C2.19071 12.2785 2.19071 14.3542 2.74085 16.3163H7.57835C7.24502 14.3302 7.24502 12.3025 7.57835 10.3163ZM3.52836 8.31634H8.02836C8.62982 6.21048 9.65492 4.2496 11.0409 2.55384C9.44057 2.89937 7.93679 3.5954 6.63777 4.59182C5.33875 5.58824 4.2768 6.86027 3.52836 8.31634ZM11.0409 24.0788C9.65492 22.3831 8.62982 20.4222 8.02836 18.3163H3.52836C4.2768 19.7724 5.33875 21.0444 6.63777 22.0409C7.93679 23.0373 9.44057 23.7333 11.0409 24.0788ZM18.7468 10.3163H23.5843C24.1344 12.2785 24.1344 14.3542 23.5843 16.3163H18.7468C19.0801 14.3302 19.0801 12.3025 18.7468 10.3163ZM22.7968 8.31634H18.2968C17.6953 6.21048 16.6702 4.2496 15.2843 2.55384C16.8846 2.89937 18.3883 3.5954 19.6874 4.59182C20.9864 5.58824 22.0483 6.86027 22.7968 8.31634ZM15.2843 24.0788C16.6702 22.3831 17.6953 20.4222 18.2968 18.3163H22.7968C22.0483 19.7724 20.9864 21.0444 19.6874 22.0409C18.3883 23.0373 16.8846 23.7333 15.2843 24.0788Z" fill="#BB99DE"/>
</svg>
